<?xml version="1.0" standalone="no"?>
<!DOCTYPE svg PUBLIC "-//W3C//DTD SVG 20010904//EN"
 "http://www.w3.org/TR/2001/REC-SVG-20010904/DTD/svg10.dtd">
<svg version="1.0" xmlns="http://www.w3.org/2000/svg"
 width="925.000000pt" height="1280.000000pt" viewBox="0 0 925.000000 1280.000000"
 preserveAspectRatio="xMidYMid meet">
<metadata>
Created by potrace 1.15, written by Peter Selinger 2001-2017
</metadata>
<g transform="translate(0.000000,1280.000000) scale(0.100000,-0.100000)"
fill="#000000" stroke="none">
<path d="M3585 12255 c-128 -24 -270 -82 -370 -153 -172 -120 -245 -203 -360
-405 -76 -133 -103 -159 -215 -203 -100 -39 -185 -109 -358 -293 -181 -193
-232 -238 -329 -292 -53 -28 -74 -46 -79 -65 -7 -29 13 -56 57 -74 16 -7 29
-16 29 -20 0 -11 -89 -92 -140 -127 -26 -17 -93 -57 -150 -88 -215 -117 -375
-264 -463 -425 -80 -145 -109 -283 -138 -645 -23 -284 -19 -384 32 -795 6 -47
26 -134 45 -193 l36 -109 -7 -142 c-9 -209 17 -332 99 -460 l38 -59 -51 -101
c-27 -56 -57 -128 -66 -161 -23 -84 -31 -279 -15 -381 6 -46 9 -100 5 -121 -5
-34 -13 -42 -63 -69 -54 -29 -57 -33 -54 -66 2 -28 -4 -42 -32 -71 -46 -49
-50 -65 -31 -136 10 -40 13 -82 10 -128 -6 -65 -5 -69 25 -101 16 -18 43 -35
59 -38 28 -6 30 -10 36 -68 3 -33 17 -124 30 -201 13 -77 31 -201 40 -275 21
-180 45 -278 94 -380 23 -46 41 -90 41 -98 0 -8 13 -38 29 -66 16 -28 37 -75
46 -104 10 -29 35 -80 57 -115 49 -78 156 -297 196 -404 57 -147 115 -416 95
-433 -5 -4 -29 -14 -55 -24 -157 -58 -320 -227 -367 -381 -46 -148 -52 -378
-16 -590 20 -123 19 -197 -6 -285 -11 -41 -25 -100 -30 -130 -6 -30 -27 -95
-47 -145 -36 -88 -36 -93 -38 -230 -1 -115 -5 -155 -25 -225 -19 -69 -24 -109
-24 -210 0 -149 11 -187 92 -322 76 -125 105 -191 165 -376 71 -221 117 -310
199 -388 54 -51 108 -85 174 -109 28 -10 67 -31 88 -47 83 -64 170 -84 242
-54 42 18 69 57 59 88 -6 19 -3 18 25 -10 49 -49 97 -59 168 -36 42 14 63 27
79 51 l22 32 18 -20 c30 -33 69 -49 119 -49 63 0 110 22 131 61 l16 33 20 -27
c28 -38 69 -57 122 -57 55 0 93 14 127 46 l26 25 36 -21 c47 -28 122 -28 222
-1 151 42 215 93 215 171 -1 49 -11 63 -139 198 -103 109 -207 240 -197 249 2
2 30 -3 62 -12 95 -25 286 -30 479 -10 325 32 361 34 486 25 148 -10 192 -26
369 -140 215 -138 369 -191 570 -193 66 -1 146 4 189 12 80 16 66 18 206 -36
66 -26 262 -23 353 5 120 38 182 115 182 228 0 47 -23 74 -62 74 -29 0 -98 70
-153 155 -38 60 -150 132 -283 183 -69 26 -107 52 -251 166 -237 189 -333 257
-536 381 -304 187 -389 249 -489 360 -102 114 -161 200 -177 259 -9 33 -8 54
5 106 9 36 23 100 31 144 8 43 26 116 40 161 33 107 44 201 45 366 l0 136 52
59 c28 32 61 82 73 109 64 146 76 176 86 226 13 57 39 88 75 89 40 0 63 -43
109 -205 30 -105 103 -260 137 -292 33 -31 71 -38 92 -18 19 20 20 23 41 205
17 150 43 285 69 355 l15 40 0 -32 c1 -43 18 -83 35 -83 25 0 47 67 62 188 34
281 38 300 73 340 27 31 39 23 98 -62 48 -69 76 -96 88 -84 18 18 27 106 32
331 l6 249 20 -46 c17 -40 22 -44 39 -35 43 23 7 160 -99 377 -32 66 -33 91
-2 167 l24 59 100 17 c102 17 213 58 415 152 181 84 223 91 345 58 58 -16 95
-21 136 -17 42 4 60 2 69 -9 17 -21 98 -45 152 -45 56 0 105 18 132 48 10 12
39 31 63 43 38 18 47 19 54 8 5 -8 9 -108 9 -224 1 -164 5 -228 18 -290 10
-44 22 -80 28 -80 5 0 10 38 11 85 1 47 7 153 13 235 7 83 12 172 12 199 l1
48 41 -8 c113 -23 191 3 285 93 31 29 59 53 64 53 4 0 26 17 50 38 23 21 76
58 118 80 67 37 149 108 149 130 0 4 20 20 45 35 87 55 104 108 60 184 l-26
43 26 10 c14 5 38 13 53 16 15 4 32 10 37 13 6 4 73 34 150 66 92 38 164 77
210 111 39 28 108 73 155 100 105 59 147 96 171 152 11 26 31 49 50 60 81 45
111 74 141 139 l31 65 -27 53 c-14 28 -26 58 -26 66 -1 29 -40 97 -99 169 -33
41 -70 99 -81 129 -14 35 -42 77 -80 117 -50 54 -60 71 -70 121 -18 88 -20 97
-33 114 -38 50 -187 83 -322 70 -95 -8 -100 -10 -229 -91 -44 -28 -82 -50 -85
-50 -3 0 -25 107 -48 238 -37 205 -50 257 -98 387 -31 83 -64 181 -73 219 -24
95 -42 98 -42 6 0 -52 12 -114 45 -238 38 -145 47 -197 66 -395 11 -125 19
-233 16 -240 -8 -20 -238 -135 -484 -241 -122 -53 -224 -96 -227 -96 -3 0 -22
14 -42 32 -29 26 -38 29 -44 17 -5 -8 -27 -38 -49 -68 -23 -30 -41 -64 -41
-76 0 -15 -16 -32 -52 -55 -44 -29 -59 -33 -107 -31 -98 4 -119 10 -140 46
-23 39 -135 124 -290 220 -137 85 -208 157 -316 320 -88 133 -157 206 -333
354 -139 116 -217 204 -230 259 -5 20 -20 80 -32 132 -12 52 -41 147 -65 210
-46 123 -58 187 -75 375 -18 199 -47 297 -124 429 -49 83 -168 208 -248 261
-32 21 -58 38 -58 39 0 1 8 24 16 51 12 35 19 106 23 235 l6 185 36 3 c21 2
68 -9 120 -28 93 -35 131 -35 199 0 65 33 63 54 -18 129 -38 36 -93 102 -122
146 -66 102 -162 297 -161 327 1 13 4 67 7 120 5 77 2 108 -11 150 -31 93 -66
151 -135 223 -40 42 -101 125 -150 205 -176 284 -246 345 -442 384 -93 19
-284 20 -383 1z m1798 -5367 c43 -63 45 -69 27 -78 -27 -15 -40 -12 -40 8 -1
9 -14 50 -30 91 -32 83 -24 78 43 -21z m-2583 -3495 c0 -66 25 -223 50 -313
11 -41 56 -147 100 -235 108 -217 114 -244 106 -475 -6 -187 -18 -273 -56
-409 -22 -83 -27 -213 -10 -301 6 -29 9 -54 7 -56 -8 -8 -219 195 -289 279
-129 152 -153 190 -182 280 -55 174 -71 348 -52 567 8 94 15 121 72 265 101
258 128 313 185 381 30 35 57 64 62 64 4 0 7 -21 7 -47z"/>
</g>
</svg>
